<svg xmlns="http://www.w3.org/2000/svg" width="256" height="256" viewBox="0 0 100 100">
  <rect width="100" height="100" rx="20" fill="#000000"></rect>
  <path d="M23.15 69.64L23.15 69.64L9.85 69.64L9.85 30.36L23.42 30.36Q29.27 30.36 33.48 32.71Q37.69 35.06 39.95 39.45Q42.21 43.84 42.21 49.96L42.21 49.96Q42.21 56.10 39.94 60.51Q37.67 64.92 33.40 67.28Q29.14 69.64 23.15 69.64ZM16.96 36.52L16.96 63.48L22.81 63.48Q26.91 63.48 29.65 61.98Q32.40 60.47 33.78 57.47Q35.16 54.47 35.16 49.96L35.16 49.96Q35.16 45.46 33.78 42.47Q32.40 39.49 29.70 38.01Q27.01 36.52 23.02 36.52L23.02 36.52L16.96 36.52ZM48.96 69.64L48.96 30.36L57.67 30.36L69.33 58.82L69.79 58.82L81.45 30.36L90.15 30.36L90.15 69.64L83.33 69.64L83.33 42.66L82.96 42.66L72.11 69.52L67.01 69.52L56.16 42.60L55.79 42.60L55.79 69.64L48.96 69.64Z" fill="#ffffff"></path>
  <style>
    rect { fill: #000000; }
    path { fill: #ffffff; }
    @media (prefers-color-scheme: dark) {
      rect { fill: #ffffff; }
      path { fill: #000000; }
    }
  </style>
</svg>