<?xml version="1.0" encoding="iso-8859-1"?>
<svg version="1.1" id="Layer_1" xmlns="http://www.w3.org/2000/svg" xmlns:xlink="http://www.w3.org/1999/xlink" x="0px" y="0px"
	 viewBox="0 0 1000 1000" style="enable-background:new 0 0 1000 1000;" xml:space="preserve">
<path style="fill:#00475D;" d="M510.544,493.197v45.351h-28.118c-16.326,0-16.326-4.535-16.326-22.675
	c0-15.419,0-22.676,16.326-22.676H510.544z M542.744,565.306V434.694h-32.2v32.199h-28.118c-39.91,0-48.979,13.606-48.979,48.981
	c0,33.56,6.349,49.432,49.432,49.432H542.744z M596.258,515.874c0-17.235,0-22.676,16.326-22.676h9.978v-26.304h-9.978
	c-39.908,0-48.979,6.35-48.979,48.981v49.432h32.653L596.258,515.874z M717.8,493.197v45.351h-28.118
	c-16.326,0-16.326-4.535-16.326-22.675c0-15.419,0-22.676,16.326-22.676H717.8z M750,565.306v-98.413h-60.318
	c-39.908,0-48.979,13.606-48.979,48.981c0,33.56,6.35,49.432,49.433,49.432H750z M306.689,466.893l0.228,98.413h32.199v-72.108
	h24.49c16.326,0,16.326,5.442,16.326,22.676v49.432h32.653v-49.432c0-42.631-9.069-48.981-48.979-48.981H306.689z M282.426,466.893
	H250v98.413h32.426V466.893z"/>
</svg>
